<?xml version="1.0" encoding="UTF-8" standalone="no"?>
<svg
   xmlns:dc="http://purl.org/dc/elements/1.1/"
   xmlns:cc="http://creativecommons.org/ns#"
   xmlns:rdf="http://www.w3.org/1999/02/22-rdf-syntax-ns#"
   xmlns:svg="http://www.w3.org/2000/svg"
   xmlns="http://www.w3.org/2000/svg"
   xmlns:sodipodi="http://sodipodi.sourceforge.net/DTD/sodipodi-0.dtd"
   xmlns:inkscape="http://www.inkscape.org/namespaces/inkscape"
   sodipodi:docname="level_complete.svg"
   inkscape:version="1.0 (4035a4fb49, 2020-05-01)"
   id="svg8"
   version="1.1"
   viewBox="0 0 293.57603 142.77824"
   height="539.63428"
   width="1109.5787">
  <defs
     id="defs2">
    <inkscape:path-effect
       bendpath-nodetypes="cc"
       hide_knot="false"
       vertical="false"
       scale_y_rel="false"
       prop_scale="1"
       bendpath="m -29.201912,123.00083 c 87.563815,-43.725272 173.824922,-52.377629 257.810362,0"
       lpeversion="1"
       is_visible="true"
       id="path-effect938"
       effect="bend_path" />
  </defs>
  <sodipodi:namedview
     inkscape:window-maximized="1"
     inkscape:window-y="-8"
     inkscape:window-x="-8"
     inkscape:window-height="1027"
     inkscape:window-width="1920"
     units="px"
     inkscape:pagecheckerboard="true"
     showgrid="false"
     inkscape:document-rotation="0"
     inkscape:current-layer="layer1"
     inkscape:document-units="px"
     inkscape:cy="104.93273"
     inkscape:cx="331.23378"
     inkscape:zoom="0.34085227"
     inkscape:pageshadow="2"
     inkscape:pageopacity="0.0"
     borderopacity="1.0"
     bordercolor="#666666"
     pagecolor="#ffffff"
     id="base" />
  <metadata
     id="metadata5">
    <rdf:RDF>
      <cc:Work
         rdf:about="">
        <dc:format>image/svg+xml</dc:format>
        <dc:type
           rdf:resource="http://purl.org/dc/dcmitype/StillImage" />
        <dc:title></dc:title>
      </cc:Work>
    </rdf:RDF>
  </metadata>
  <g
     transform="translate(40.058755,-36.605167)"
     id="layer1"
     inkscape:groupmode="layer"
     inkscape:label="Layer 1">
    <path
       d="m 201.47416,152.69239 c 4.77186,2.1294 9.48903,4.41796 14.13976,6.84726 m -5.53913,-20.95117 c 3.75476,1.66031 7.47082,3.40954 11.14359,5.24072 m -19.74422,8.86319 c 5.37754,-9.03723 10.73851,-18.08192 16.08289,-27.13406 5.46757,2.43701 10.84352,5.04722 16.1165,7.81282 m -42.90403,-17.59764 -11.82393,26.78381 m -0.8893,-31.31774 c 8.6887,2.31604 17.22778,5.10734 25.58054,8.31475 m -62.56446,15.32413 c 5.13382,0.63679 10.22815,1.46154 15.2601,2.47589 m -12.41811,-18.23351 c 4.09692,0.49686 8.17477,1.10274 12.22482,1.81832 m -15.06681,13.9393 c 1.69877,-10.05858 3.37605,-20.12001 5.03183,-30.18426 6.04564,0.75207 12.05528,1.72346 18.00674,2.91575 m -48.03366,-4.44096 c -0.26821,9.87265 -0.52606,19.74549 -0.77356,29.61849 4.47036,0.0653 8.9356,0.26699 13.38122,0.6058 m -41.770786,-0.0323 c -1.317366,-9.53724 -2.626459,-19.07527 -3.927271,-28.61412 0,0 4.248771,-1.24438 8.671291,-0.98835 4.455822,0.25795 8.813846,2.00123 9.053036,7.4814 0.23768,5.44594 -3.700114,7.53727 -7.570323,8.35011 -3.897299,0.81852 -7.971781,0.40809 -7.971781,0.40809 m -36.369543,19.77857 c -2.854268,-9.51038 -5.673875,-19.02944 -8.458533,-28.55718 0.35624,0.18223 0.711804,0.36499 1.066682,0.54829 4.917623,2.542 9.701296,5.18671 14.331853,7.92993 3.526212,-4.43785 7.267674,-8.82118 11.242344,-13.12857 1.993293,9.51078 3.993337,19.02051 6.000127,28.52922 M 14.521189,118.06672 c 0,0 -2.79784,0.52479 -4.8139943,2.78426 -2.0302519,2.27529 -3.1769842,6.19049 -0.00354,12.93399 3.1543323,6.70292 7.0267183,9.60827 9.9714743,10.82229 2.975197,1.22657 5.16455,0.80406 5.16455,0.80406 0,0 2.786527,-0.84067 4.851443,-3.32459 2.043792,-2.45852 3.501191,-6.69179 0.657417,-13.49652 -2.863688,-6.85238 -6.745729,-9.49767 -10.040799,-10.42657 -3.266149,-0.92075 -5.786537,-0.0969 -5.786537,-0.0969 z m -23.5027365,8.03084 c 0,0 -4.3011505,1.74989 -7.6030525,5.2427 -3.321077,3.51309 -5.503129,8.63214 -1.597625,15.22715 4.00382,6.76103 10.0270385,8.27011 14.8830688,8.17367 4.8907414,-0.0971 8.8237983,-1.81266 8.8237983,-1.81266 M 185.15848,65.342011 c -3.13166,9.492909 -6.25302,18.988493 -9.36405,28.486742 5.53419,1.335492 11.00324,2.843722 16.40017,4.512903 m -52.71951,-10.2731 c 6.64748,0.600278 13.27002,1.442789 19.84473,2.529158 M 141.5593,72.220751 c 5.19318,0.456673 10.37495,1.050858 15.53656,1.783267 m -17.62077,14.064538 c 1.18246,-10.115265 2.34348,-20.232573 3.48306,-30.351869 7.53993,0.678081 15.05809,1.628562 22.53232,2.853027 M 97.065699,57.201643 c 3.140561,6.998207 6.057831,14.039986 8.741151,21.120652 1.11727,2.945195 2.19276,5.896901 3.22636,8.854416 3.65655,-10.325818 7.87437,-20.580462 12.65129,-30.727794 M 63.878395,91.68841 c 6.488761,-1.110063 13.029097,-2.028387 19.608678,-2.736678 M 60.503968,76.004756 c 5.00169,-0.867219 10.041756,-1.628075 15.115592,-2.275543 M 63.878395,91.68841 C 61.584781,81.71537 59.273867,71.745106 56.945706,61.777649 64.138722,60.549111 71.419289,59.527775 78.775504,58.731336 M 22.369332,69.827447 c 3.172319,9.48136 6.351617,18.960862 9.537882,28.438512 1.566957,-0.406683 3.137821,-0.803766 4.712578,-1.190998 3.864335,-0.950525 7.752974,-1.839036 11.662992,-2.661486"
       style="fill:none;stroke:#fff300;stroke-width:39.6875;stroke-linecap:round;stroke-linejoin:round;stroke-miterlimit:4;stroke-dasharray:none;stroke-opacity:1;paint-order:markers fill stroke"
       id="path955" />
    <path
       id="path839-2-7-9"
       style="fill:none;stroke:#ffffff;stroke-width:26.4583;stroke-linecap:round;stroke-linejoin:round;stroke-miterlimit:4;stroke-dasharray:none;stroke-opacity:1;paint-order:markers fill stroke"
       d="m 201.47416,152.69239 c 4.77186,2.1294 9.48903,4.41796 14.13976,6.84726 m -5.53913,-20.95117 c 3.75476,1.66031 7.47082,3.40954 11.14359,5.24072 m -19.74422,8.86319 c 5.37754,-9.03723 10.73851,-18.08192 16.08289,-27.13406 5.46757,2.43701 10.84352,5.04722 16.1165,7.81282 m -42.90403,-17.59764 -11.82393,26.78381 m -0.8893,-31.31774 c 8.6887,2.31604 17.22778,5.10734 25.58054,8.31475 m -62.56446,15.32413 c 5.13382,0.63679 10.22815,1.46154 15.2601,2.47589 m -12.41811,-18.23351 c 4.09692,0.49686 8.17477,1.10274 12.22482,1.81832 m -15.06681,13.9393 c 1.69877,-10.05858 3.37605,-20.12001 5.03183,-30.18426 6.04564,0.75207 12.05528,1.72346 18.00674,2.91575 m -48.03366,-4.44096 c -0.26821,9.87265 -0.52606,19.74549 -0.77356,29.61849 4.47036,0.0653 8.9356,0.26699 13.38122,0.6058 m -41.770786,-0.0323 c -1.317366,-9.53724 -2.626459,-19.07527 -3.927271,-28.61412 0,0 4.248771,-1.24438 8.671291,-0.98835 4.455822,0.25795 8.813846,2.00123 9.053036,7.4814 0.23768,5.44594 -3.700114,7.53727 -7.570323,8.35011 -3.897299,0.81852 -7.971781,0.40809 -7.971781,0.40809 m -36.369543,19.77857 c -2.854268,-9.51038 -5.673875,-19.02944 -8.458533,-28.55718 0.35624,0.18223 0.711804,0.36499 1.066682,0.54829 4.917623,2.542 9.701296,5.18671 14.331853,7.92993 3.526212,-4.43785 7.267674,-8.82118 11.242344,-13.12857 1.993293,9.51078 3.993337,19.02051 6.000127,28.52922 M 14.521189,118.06672 c 0,0 -2.79784,0.52479 -4.8139943,2.78426 -2.0302519,2.27529 -3.1769842,6.19049 -0.00354,12.93399 3.1543323,6.70292 7.0267183,9.60827 9.9714743,10.82229 2.975197,1.22657 5.16455,0.80406 5.16455,0.80406 0,0 2.786527,-0.84067 4.851443,-3.32459 2.043792,-2.45852 3.501191,-6.69179 0.657417,-13.49652 -2.863688,-6.85238 -6.745729,-9.49767 -10.040799,-10.42657 -3.266149,-0.92075 -5.786537,-0.0969 -5.786537,-0.0969 z m -23.5027365,8.03084 c 0,0 -4.3011505,1.74989 -7.6030525,5.2427 -3.321077,3.51309 -5.503129,8.63214 -1.597625,15.22715 4.00382,6.76103 10.0270385,8.27011 14.8830688,8.17367 4.8907414,-0.0971 8.8237983,-1.81266 8.8237983,-1.81266 M 185.15848,65.342011 c -3.13166,9.492909 -6.25302,18.988493 -9.36405,28.486742 5.53419,1.335492 11.00324,2.843722 16.40017,4.512903 m -52.71951,-10.2731 c 6.64748,0.600278 13.27002,1.442789 19.84473,2.529158 M 141.5593,72.220751 c 5.19318,0.456673 10.37495,1.050858 15.53656,1.783267 m -17.62077,14.064538 c 1.18246,-10.115265 2.34348,-20.232573 3.48306,-30.351869 7.53993,0.678081 15.05809,1.628562 22.53232,2.853027 M 97.065699,57.201643 c 3.140561,6.998207 6.057831,14.039986 8.741151,21.120652 1.11727,2.945195 2.19276,5.896901 3.22636,8.854416 3.65655,-10.325818 7.87437,-20.580462 12.65129,-30.727794 M 63.878395,91.68841 c 6.488761,-1.110063 13.029097,-2.028387 19.608678,-2.736678 M 60.503968,76.004756 c 5.00169,-0.867219 10.041756,-1.628075 15.115592,-2.275543 M 63.878395,91.68841 C 61.584781,81.71537 59.273867,71.745106 56.945706,61.777649 64.138722,60.549111 71.419289,59.527775 78.775504,58.731336 M 22.369332,69.827447 c 3.172319,9.48136 6.351617,18.960862 9.537882,28.438512 1.566957,-0.406683 3.137821,-0.803766 4.712578,-1.190998 3.864335,-0.950525 7.752974,-1.839036 11.662992,-2.661486" />
    <path
       d="m 201.47416,152.69239 c 4.77186,2.1294 9.48903,4.41796 14.13976,6.84726 m -5.53913,-20.95117 c 3.75476,1.66031 7.47082,3.40954 11.14359,5.24072 m -19.74422,8.86319 c 5.37754,-9.03723 10.73851,-18.08192 16.08289,-27.13406 5.46757,2.43701 10.84352,5.04722 16.1165,7.81282 m -42.90403,-17.59764 -11.82393,26.78381 m -0.8893,-31.31774 c 8.6887,2.31604 17.22778,5.10734 25.58054,8.31475 m -62.56446,15.32413 c 5.13382,0.63679 10.22815,1.46154 15.2601,2.47589 m -12.41811,-18.23351 c 4.09692,0.49686 8.17477,1.10274 12.22482,1.81832 m -15.06681,13.9393 c 1.69877,-10.05858 3.37605,-20.12001 5.03183,-30.18426 6.04564,0.75207 12.05528,1.72346 18.00674,2.91575 m -48.03366,-4.44096 c -0.26821,9.87265 -0.52606,19.74549 -0.77356,29.61849 4.47036,0.0653 8.9356,0.26699 13.38122,0.6058 m -41.770786,-0.0323 c -1.317366,-9.53724 -2.626469,-19.07527 -3.927281,-28.61412 0,0 4.248781,-1.24438 8.671301,-0.98836 4.455822,0.25796 8.813846,2.00124 9.053036,7.48141 0.23768,5.44594 -3.700114,7.53727 -7.570332,8.35011 -3.897281,0.81852 -7.971782,0.40809 -7.971782,0.40809 m -36.369535,19.77857 c -2.854267,-9.51038 -5.673874,-19.02944 -8.458531,-28.55718 0.356239,0.18223 0.711801,0.36499 1.06668,0.54829 4.917625,2.542 9.701298,5.18671 14.331855,7.92993 3.526212,-4.43785 7.267674,-8.82118 11.242342,-13.12857 1.993293,9.51078 3.993339,19.02051 6.000128,28.52922 M 14.521186,118.06672 c 0,0 -2.797839,0.52479 -4.8139932,2.78426 -2.03025,2.27529 -3.1769832,6.19049 -0.00354,12.93399 3.1543342,6.70292 7.0267192,9.60827 9.9714742,10.82229 2.975196,1.22657 5.164551,0.80406 5.164551,0.80406 0,0 2.786525,-0.84067 4.851442,-3.32459 2.043792,-2.45852 3.501192,-6.69179 0.657417,-13.49652 -2.863688,-6.85238 -6.74573,-9.49767 -10.040798,-10.42657 -3.26615,-0.92075 -5.786539,-0.0969 -5.786539,-0.0969 z m -23.5027345,8.03084 c 0,0 -4.3011505,1.74989 -7.6030535,5.2427 -3.321076,3.51309 -5.503129,8.63214 -1.597625,15.22715 4.00382,6.76103 10.0270385,8.27011 14.883069,8.17367 4.8907423,-0.0971 8.8237964,-1.81266 8.8237964,-1.81266 M 185.15848,65.34201 c -3.13166,9.49291 -6.25302,18.988493 -9.36405,28.486744 5.53419,1.335491 11.00324,2.843721 16.40017,4.512901 m -52.71951,-10.2731 c 6.64748,0.600279 13.27002,1.442788 19.84473,2.529159 M 141.5593,72.220751 c 5.19318,0.456672 10.37495,1.050857 15.53656,1.783266 m -17.62077,14.064538 c 1.18246,-10.115265 2.34348,-20.232573 3.48306,-30.351869 7.53993,0.678081 15.05809,1.628563 22.53232,2.853027 M 97.065699,57.201642 c 3.140561,6.998207 6.057831,14.039986 8.741151,21.120651 1.11727,2.945197 2.19276,5.896901 3.22636,8.854418 3.65655,-10.325819 7.87437,-20.580463 12.65129,-30.727795 M 63.878395,91.688411 c 6.488761,-1.110066 13.029091,-2.028388 19.608668,-2.736678 M 60.503968,76.004754 C 65.505656,75.137537 70.545723,74.37668 75.61956,73.729212 M 63.878395,91.688411 C 61.58478,81.71537 59.273865,71.745105 56.945706,61.777648 64.13872,60.54911 71.419289,59.527774 78.775503,58.731335 M 22.36933,69.827446 c 3.172319,9.481359 6.351618,18.960864 9.537882,28.438513 1.566958,-0.406684 3.137822,-0.803768 4.71258,-1.190999 3.864335,-0.950524 7.752974,-1.839036 11.662991,-2.661487"
       style="fill:none;stroke:#26ab00;stroke-width:13.2292;stroke-linecap:round;stroke-linejoin:round;stroke-miterlimit:4;stroke-dasharray:none;stroke-opacity:1;paint-order:markers fill stroke"
       id="path839-2-7" />
  </g>
</svg>
